<svg xmlns="http://www.w3.org/2000/svg" width="24" height="24" viewBox="0 0 24 24" fill="none" stroke="#4CAF50" stroke-width="2" stroke-linecap="round" stroke-linejoin="round">
  <path d="M2 22c1.25-1.25 2.5-2.5 3.75-2.5 1.25 0 1.25 1.25 2.5 1.25 1.25 0 1.25-1.25 2.5-1.25 1.25 0 1.25 1.25 2.5 1.25 1.25 0 1.25-1.25 2.5-1.25 1.25 0 2.5 1.25 3.75 2.5"/>
  <path d="M12 7c-.3-.3-8-8-8-8v9c0 1.7 1.3 3 3 3h5"/>
  <path d="M19 17a5 5 0 0 0 5-5c0-1.5-.5-3.5-2-5-1.5 2-2 3.5-2 5"/>
  <path d="M12 19c-2.8 0-5-2.2-5-5"
</svg>